<svg xmlns="http://www.w3.org/2000/svg" width="11" height="12" viewBox="0 0 11 12" fill="none">
  <path d="M5.5 1.25C5.07812 1.25 4.67188 1.42188 4.36719 1.72656C4.0625 2.03125 3.89062 2.4375 3.89062 2.85938H2.75C2.32812 2.85938 1.92188 3.03125 1.61719 3.33594C1.3125 3.64062 1.14062 4.04688 1.14062 4.46875V5.25H9.85938V4.46875C9.85938 4.04688 9.6875 3.64062 9.38281 3.33594C9.07812 3.03125 8.67188 2.85938 8.25 2.85938H7.10938C7.10938 2.4375 6.9375 2.03125 6.63281 1.72656C6.32812 1.42188 5.92188 1.25 5.5 1.25ZM5.5 2.5C5.63281 2.5 5.75781 2.55469 5.85156 2.64844C5.94531 2.74219 6 2.86719 6 3V2.85938H5V3C5 2.86719 5.05469 2.74219 5.14844 2.64844C5.24219 2.55469 5.36719 2.5 5.5 2.5ZM1.14062 6.25V9.78125C1.14062 10.2031 1.3125 10.6094 1.61719 10.9141C1.92188 11.2188 2.32812 11.3906 2.75 11.3906H8.25C8.67188 11.3906 9.07812 11.2188 9.38281 10.9141C9.6875 10.6094 9.85938 10.2031 9.85938 9.78125V6.25H5.5V10.6406H4.5V6.25H1.14062Z" fill="#1D1D1D"/>
</svg>
